# xmcd
#
# Track frame offsets: 
#        150
#        11605
#        25535
#        38197
#        53467
#        65262
#        79487
#        96297
#        109040
#        119695
#        135062
#        144095
#        160442
#        172232
#        182672
#        196752
#        209632
#        221285
#        247932
#        265767
#
# Disc length: 3698 seconds
#
# Revision: 14
# Processed by: cddbd v1.5.2PL0 Copyright (c) Steve Scherf et al.
# Submitted via: ExactAudioCopy v1.3
#
DISCID=0d0e7014
DTITLE=Charles Aznavour - 40 chansons d'or - CD 2
DYEAR=1996
DGENRE=Variété francophone
TTITLE0=Sur ma vie
TTITLE1=J'en déduis que je t'aime
TTITLE2=Parce que
TTITLE3=Je m'voyais déjà
TTITLE4=Que c'est triste Venise
TTITLE5=Il faut savoir
TTITLE6=L'amour c'est comme un jour
TTITLE7=Et pourtant
TTITLE8=Hier encore
TTITLE9=Paris au mois d'août
TTITLE10=Après l'amour
TTITLE11=Qui ?
TTITLE12=Le temps
TTITLE13=For me formidable
TTITLE14=Avec
TTITLE15=Plus bleu que tes yeux
TTITLE16=L'amour et la guerre
TTITLE17=Les plaisirs démodés
TTITLE18=Mourir d'aimer
TTITLE19=Jezebel
EXTD=
EXTT0=
EXTT1=
EXTT2=
EXTT3=
EXTT4=
EXTT5=
EXTT6=
EXTT7=
EXTT8=
EXTT9=
EXTT10=
EXTT11=
EXTT12=
EXTT13=
EXTT14=
EXTT15=
EXTT16=
EXTT17=
EXTT18=
EXTT19=
PLAYORDER=
